<?xml version="1.0" encoding="utf-8"?>
<!-- Generator: Adobe Illustrator 24.0.0, SVG Export Plug-In . SVG Version: 6.00 Build 0)  -->
<svg version="1.1" id="Layer_1" xmlns="http://www.w3.org/2000/svg" xmlns:xlink="http://www.w3.org/1999/xlink" x="0px" y="0px"
	 viewBox="0 0 50 50" style="enable-background:new 0 0 50 50;" xml:space="preserve">
<style type="text/css">
	.st0{display:none;fill:#CCCCCC;}
	.st1{fill:#FBB03B;stroke:#000000;stroke-miterlimit:10;}
	.st2{fill:none;stroke:#006837;stroke-miterlimit:10;}
	.st3{fill:#39B54A;stroke:#000000;stroke-miterlimit:10;}
	.st4{fill:#FFFFFF;stroke:#000000;stroke-width:0.5;stroke-miterlimit:10;}
	.st5{fill:#0071BC;stroke:#000000;stroke-width:0.5;stroke-miterlimit:10;}
	.st6{fill:#FFFFFF;stroke:#000000;stroke-miterlimit:10;}
	.st7{fill:#0071BC;stroke:#000000;stroke-miterlimit:10;}
</style>
<rect x="5" y="5" class="st0" width="40" height="40"/>
<circle class="st1" cx="25" cy="25" r="20"/>
<g>
	<path class="st2" d="M23.5,16.5c-3,0-7,0-12,0c0-3.31,2.69-6,6-6S23.5,13.19,23.5,16.5z"/>
	<path class="st3" d="M7.5,15.5v19.17C10.91,40.83,17.47,45,25,45c0.85,0,1.68-0.07,2.5-0.17V15.5H7.5z"/>
	<g>
		<path class="st4" d="M13.5,20.5c-0.71,0-1.38,0-2,0c0,1.77,0.78,3.36,2,4.46c0-0.46,0-1.16,0-1.96C13.5,21.62,13.5,20.5,13.5,20.5
			z"/>
		<path class="st4" d="M23.5,20.5c-0.69,0-1.35,0-2,0c0,0,0,1.12,0,2.5c0,0.8,0,1.51,0,1.96C22.72,23.86,23.5,22.27,23.5,20.5z"/>
		<path class="st4" d="M17.5,20.5c-1.46,0-2.79,0-4,0c0,0,0,1.12,0,2.5c0,0.8,0,1.51,0,1.96c1.06,0.95,2.46,1.54,4,1.54
			c0,0,0-1.34,0-3S17.5,20.5,17.5,20.5z"/>
		<path class="st4" d="M21.5,20.5c-1.43,0-2.76,0-4,0c0,0,0,1.34,0,3s0,3,0,3c1.54,0,2.94-0.58,4-1.54c0-0.46,0-1.16,0-1.96
			C21.5,21.62,21.5,20.5,21.5,20.5z"/>
	</g>
	<rect x="10.5" y="16.5" class="st4" width="2" height="2"/>
	<rect x="22.5" y="16.5" class="st4" width="2" height="2"/>
</g>
<g>
	<path class="st5" d="M44.5,29.4v-0.9h-20v16.47c0.17,0,0.33,0.03,0.5,0.03C34.53,45,42.5,38.32,44.5,29.4z"/>
	<path class="st6" d="M34.5,27c0-0.83,0-1.5,0-1.5S34.5,26.17,34.5,27s0,1.5,0,1.5S34.5,27.83,34.5,27z"/>
	<circle class="st7" cx="34.5" cy="23.5" r="2"/>
	<circle class="st6" cx="28.5" cy="31.5" r="1"/>
	<circle class="st6" cx="40.5" cy="31.5" r="1"/>
	<g>
		<path class="st4" d="M30.5,34.5c-0.71,0-1.38,0-2,0c0,1.77,0.78,3.36,2,4.46c0-0.46,0-1.16,0-1.96C30.5,35.62,30.5,34.5,30.5,34.5
			z"/>
		<path class="st4" d="M40.5,34.5c-0.69,0-1.35,0-2,0c0,0,0,1.12,0,2.5c0,0.8,0,1.51,0,1.96C39.72,37.86,40.5,36.27,40.5,34.5z"/>
		<path class="st4" d="M34.5,34.5c-1.46,0-2.79,0-4,0c0,0,0,1.12,0,2.5c0,0.8,0,1.51,0,1.96c1.06,0.95,2.46,1.54,4,1.54
			c0,0,0-1.34,0-3S34.5,34.5,34.5,34.5z"/>
		<path class="st4" d="M38.5,34.5c-1.43,0-2.76,0-4,0c0,0,0,1.34,0,3s0,3,0,3c1.54,0,2.94-0.58,4-1.54c0-0.46,0-1.16,0-1.96
			C38.5,35.62,38.5,34.5,38.5,34.5z"/>
	</g>
</g>
</svg>
